<svg width="131" height="28" viewBox="0 0 131 28" fill="none" xmlns="http://www.w3.org/2000/svg">
<path d="M50.1171 10.8546C50.1761 10.8629 50.2204 10.9129 50.2204 10.9726V18.661C50.2204 18.7271 50.1672 18.7803 50.101 18.7803H47.3385C47.2724 18.7803 47.2191 18.7271 47.2191 18.661V10.2348C47.2191 10.17 47.2827 10.1251 47.3436 10.1469C47.7294 10.2836 48.9508 10.6955 50.1171 10.8546Z" fill="#281305"/>
<path d="M55.4446 1.08955L54.8394 3.12841C54.8188 3.19706 54.7431 3.2317 54.677 3.20347C53.9183 2.87949 53.1808 2.71718 52.4202 2.71718C50.8676 2.71718 50.2206 3.36066 50.2206 4.80223V7.65908L47.2186 7.15866V4.62259C47.2186 1.66182 48.7713 0.19458 51.9022 0.19458C53.1847 0.19458 54.3451 0.43773 55.383 0.947766C55.4356 0.973428 55.4613 1.03373 55.4446 1.08955Z" fill="#281305"/>
<path d="M8.69469 19.0892C13.9739 19.0892 16.8462 17.1844 16.8462 13.6321C16.8462 10.3114 14.7763 8.94686 9.10933 8.50932C5.20172 8.22639 3.95974 7.6599 3.95974 6.21832C3.95974 4.62213 5.66771 3.69573 8.48801 3.69573C10.7666 3.69573 12.8218 4.26222 14.5086 5.41959C14.5683 5.46065 14.6498 5.44076 14.6832 5.37596L15.8148 3.17158C15.8424 3.11769 15.8257 3.05161 15.7763 3.0176C13.7993 1.66649 11.3699 0.966553 8.51433 0.966553C3.64972 0.966553 0.776787 2.97462 0.776787 6.34663C0.776787 9.66732 2.84676 11.0319 8.48801 11.4694C12.3956 11.7524 13.6633 12.3189 13.6633 13.7604C13.6633 15.4849 11.9296 16.3607 8.66902 16.3607C5.99955 16.3607 3.50466 15.5902 1.45523 14.1717C1.39682 14.1313 1.31594 14.1499 1.28193 14.2121L0.051493 16.4729C0.0226096 16.5262 0.0380141 16.5935 0.0874368 16.6288C2.37821 18.2359 5.32175 19.0892 8.69469 19.0892Z" fill="#281305"/>
<path d="M29.3239 5.95185V14.3011C28.2372 15.717 26.8136 16.5151 25.0799 16.5151C23.139 16.5151 22.13 15.5367 22.13 13.5806V5.95185C22.13 5.88577 22.0767 5.83253 22.0106 5.83253H19.248C19.1819 5.83253 19.1287 5.88577 19.1287 5.95185V14.1727C19.1287 17.2618 20.94 19.0896 23.9933 19.0896C26.1672 19.0896 27.9529 18.1626 29.3239 16.3354V18.6611C29.3239 18.7271 29.3771 18.7804 29.4432 18.7804H32.2058C32.2719 18.7804 32.3252 18.7271 32.3252 18.6611V5.95185C32.3252 5.88577 32.2719 5.83253 32.2058 5.83253H29.4432C29.3771 5.83188 29.3239 5.88577 29.3239 5.95185Z" fill="#281305"/>
<path d="M55.1372 8.04463V5.92557C55.1372 5.8287 55.0274 5.7716 54.9485 5.82805C54.4883 6.15653 53.2193 6.9341 51.5152 6.9341C49.0826 6.9341 46.5498 5.52332 44.1557 5.52332C41.6718 5.52332 39.9638 6.57867 38.6441 8.58674V5.95187C38.6441 5.88579 38.5909 5.83255 38.5247 5.83255H35.7622C35.6961 5.83255 35.6428 5.88579 35.6428 5.95187V18.6604C35.6428 18.7265 35.6961 18.7798 35.7622 18.7798H38.5247C38.5909 18.7798 38.6441 18.7265 38.6441 18.6604V10.7488C39.9381 9.10127 41.9176 8.06387 44.4067 8.06387C46.9446 8.06387 48.5961 9.48749 51.2071 9.48749C53.4453 9.48749 54.8464 8.35386 55.0968 8.1338C55.1224 8.11135 55.1372 8.07863 55.1372 8.04463Z" fill="#281305"/>
<path d="M65.1307 5.52331C63.0344 5.52331 61.3271 6.47602 60.1108 8.27751V0.623113C60.1108 0.557033 60.0575 0.503784 59.9914 0.503784H57.2289C57.1628 0.503784 57.1095 0.557033 57.1095 0.623113V18.6604C57.1095 18.7265 57.1628 18.7798 57.2289 18.7798H59.9914C60.0575 18.7798 60.1108 18.7265 60.1108 18.6604V16.3348C61.3271 18.1369 63.0351 19.089 65.1307 19.089C68.7534 19.089 71.238 16.3348 71.238 12.3187C71.2373 8.27751 68.7534 5.52331 65.1307 5.52331ZM64.3541 16.5151C62.6981 16.5151 61.1192 15.717 60.1102 14.3011V10.3112C61.1192 8.92099 62.6981 8.09723 64.3541 8.09723C66.6827 8.09723 68.184 9.74474 68.184 12.3187C68.184 14.8676 66.6834 16.5151 64.3541 16.5151Z" fill="#281305"/>
<path d="M80.3157 19.089C84.7406 19.089 87.6906 16.3862 87.6906 12.3187C87.6906 8.25124 84.7406 5.52271 80.3157 5.52271C75.8908 5.52271 72.9408 8.25124 72.9408 12.3187C72.9408 16.3862 75.8908 19.089 80.3157 19.089ZM80.3157 16.5151C77.7021 16.5151 75.9941 14.8419 75.9941 12.3193C75.9941 9.77108 77.7021 8.09791 80.3157 8.09791C82.9293 8.09791 84.6373 9.77108 84.6373 12.3193C84.6373 14.8419 82.9293 16.5151 80.3157 16.5151Z" fill="#281305"/>
<path d="M95.9994 5.52332C93.5854 5.52332 91.6958 6.01988 90.0109 7.03674C89.9583 7.06882 89.9384 7.13554 89.9653 7.19136L90.9473 9.23856C90.9782 9.30272 91.0577 9.32517 91.1181 9.28796C92.4589 8.46164 93.9243 8.07157 95.5854 8.07157C98.432 8.07157 99.7517 9.23022 99.7517 11.7272V12.1904C98.3287 11.3923 96.31 10.9034 94.4211 10.9034C91.1348 10.9034 89.2195 12.3963 89.2195 14.9965C89.2195 17.5448 91.0565 19.0896 94.0327 19.0896C96.3877 19.0896 98.4577 18.0856 99.7517 16.3354V18.6611C99.7517 18.7272 99.8049 18.7804 99.871 18.7804H102.634C102.7 18.7804 102.753 18.7272 102.753 18.6611V11.5212C102.753 7.37677 100.683 5.52332 95.9994 5.52332ZM99.751 14.4557C98.6124 15.8716 96.8011 16.6954 94.8601 16.6954C93.2041 16.6954 92.2985 16.0519 92.2985 14.9189C92.2985 13.7346 93.2818 13.1168 95.2227 13.1168C96.8011 13.1168 98.5353 13.5286 99.751 14.1721V14.4557Z" fill="#281305"/>
<path d="M114.264 5.52332C111.78 5.52332 110.072 6.57867 108.752 8.58674V5.95187C108.752 5.88579 108.699 5.83255 108.633 5.83255H105.87C105.804 5.83255 105.751 5.88579 105.751 5.95187V18.6604C105.751 18.7265 105.804 18.7798 105.87 18.7798H108.633C108.699 18.7798 108.752 18.7265 108.752 18.6604V10.7488C110.046 9.10127 111.573 8.3545 113.695 8.3545C114.161 8.3545 114.73 8.40582 115.144 8.48345L115.325 5.62596C115.014 5.54898 114.627 5.52332 114.264 5.52332Z" fill="#281305"/>
<path d="M127.313 0.623113V8.27751C126.097 6.47538 124.389 5.52331 122.293 5.52331C118.671 5.52331 116.186 8.27751 116.186 12.3193C116.186 16.3348 118.67 19.0896 122.293 19.0896C124.389 19.0896 126.097 18.1369 127.313 16.3354V18.6611C127.313 18.7272 127.366 18.7804 127.432 18.7804H130.195C130.261 18.7804 130.314 18.7272 130.314 18.6611V0.623113C130.314 0.557033 130.261 0.503784 130.195 0.503784H127.432C127.366 0.503784 127.313 0.557033 127.313 0.623113ZM127.313 14.3011C126.304 15.717 124.699 16.5151 123.069 16.5151C120.714 16.5151 119.239 14.8676 119.239 12.3193C119.239 9.74539 120.714 8.09787 123.069 8.09787C124.699 8.09787 126.304 8.92163 127.313 10.3119V14.3011Z" fill="#281305"/>
<path d="M130.204 23.3271C119.284 24.1727 93.8544 25.3538 65.1571 25.3538C43.9369 25.3538 24.5031 24.7079 11.4013 24.0295C10.1748 26.1577 7.94164 27.6327 5.35038 27.8046C5.11033 27.8206 4.93574 27.5788 5.02368 27.3549C5.3537 26.5163 6.04982 24.7488 6.4417 23.7538C3.98842 23.6071 1.86228 23.4628 0.109757 23.3271C0.0474972 23.322 0 23.27 0 23.2078V22.0017C0 21.9356 0.0532738 21.8823 0.119385 21.8823H130.195C130.261 21.8823 130.314 21.9356 130.314 22.0017V23.2078C130.314 23.2706 130.267 23.322 130.204 23.3271Z" fill="#F4673C"/>
</svg>
